# xmcd
#
# Track frame offsets: 
#        150
#        13783
#        29772
#        56597
#        74036
#        94662
#        119034
#        145828
#        159958
#        180143
#        197545
#        213618
#        242899
#        258626
#        279620
#        315167
#
# Disc length: 4330 seconds
#
# Revision: 0
# Processed by: cddbd v1.5.2PL0 Copyright (c) Steve Scherf et al.
# Submitted via: ExactAudioCopyFreeDBPlugin 1.0
#
DISCID=ec10e810
DTITLE=Various Artist - The Best of Sacred Steel
DYEAR=2010
DGENRE=Gospel
TTITLE0=Sonny Treadway - Don't Let the Devil Ride
TTITLE1=Glenn Lee - Call Him by His Name
TTITLE2=Willie Eason - Franklin D. Roosevelt, A Poor Man's Friend
TTITLE3=Chuck Campbell - I Feel Good
TTITLE4=Darick Campbell - End of My Journey
TTITLE5=Ted Beard - The Train
TTITLE6=Robert Randolph - Without God
TTITLE7=Josh Taylor - Precious Lord Take My Hand
TTITLE8=Aubrey Ghent - Just a Closer Walk With Thee
TTITLE9=Calvin Cooke - Since I Laid My Burden Down
TTITLE10=The Lee Boys - Say Yes!
TTITLE11=Darick Campbell - Where Could I Go But to the Lord
TTITLE12=Footie Covington - Footie's Medley (Pink Panther)
TTITLE13=Elton Noble - Then Comes Joy
TTITLE14=Henry Nelson and Aubrey Ghent - Praise the Lord Everybody
TTITLE15=Willie Eason - Near the Cross
EXTD=
EXTT0=
EXTT1=
EXTT2=
EXTT3=
EXTT4=
EXTT5=
EXTT6=
EXTT7=
EXTT8=
EXTT9=
EXTT10=
EXTT11=
EXTT12=
EXTT13=
EXTT14=
EXTT15=
PLAYORDER=
